<svg xmlns="http://www.w3.org/2000/svg" width="25" height="25" viewBox="0 0 25 25" fill="none">
<g clip-path="url(#clip0_4_55)">
<path fill-rule="evenodd" clip-rule="evenodd" d="M17.2417 23.0553C15.7417 23.0001 11.4906 22.4126 7.03853 17.9615C2.58749 13.5094 2.00103 9.25945 1.94478 7.75841C1.86145 5.47091 3.61353 3.24903 5.63749 2.38132C5.88122 2.27608 6.14812 2.23601 6.412 2.26505C6.67589 2.29408 6.92769 2.39123 7.1427 2.54695C8.80936 3.76153 9.95936 5.59903 10.9469 7.04382C11.1641 7.36125 11.257 7.74752 11.2079 8.12903C11.1587 8.51054 10.9709 8.86062 10.6802 9.11257L8.64791 10.6219C8.54972 10.6928 8.48061 10.797 8.4534 10.915C8.4262 11.033 8.44275 11.1569 8.49999 11.2636C8.96041 12.1001 9.77916 13.3459 10.7167 14.2834C11.6552 15.2209 12.9594 16.0938 13.8542 16.6063C13.9663 16.6693 14.0984 16.6869 14.2232 16.6555C14.3479 16.6241 14.456 16.5461 14.525 16.4376L15.8479 14.424C16.0911 14.101 16.4499 13.8845 16.8491 13.8201C17.2484 13.7556 17.657 13.8481 17.9896 14.0782C19.4552 15.0928 21.1656 16.223 22.4177 17.8261C22.5861 18.0427 22.6932 18.3005 22.7278 18.5726C22.7624 18.8447 22.7233 19.1212 22.6146 19.373C21.7427 21.4074 19.5364 23.1397 17.2417 23.0553Z" fill="#311F5E"/>
</g>
<defs>
<clipPath id="clip0_4_55">
<rect width="25" height="25" fill="white"/>
</clipPath>
</defs>
</svg>